{
  "accessors": [
    {
      "bufferView": 2,
      "componentType": 5126,
      "count": 15480,
      "max": [
        1.5107768774032593,
        0.38066571950912476,
        0.47347742319107056
      ],
      "min": [
        -0.858787477016449,
        -1.1506860256195068,
        -2.7702250480651855
      ],
      "type": "VEC3"
    },
    {
      "bufferView": 2,
      "byteOffset": 185760,
      "componentType": 5126,
      "count": 15480,
      "max": [
        0.9999802112579346,
        0.9999580383300781,
        0.9999387860298157
      ],
      "min": [
        -0.999951183795929,
        -0.9999813437461853,
        -0.9996354579925537
      ],
      "type": "VEC3"
    },
    {
      "bufferView": 3,
      "componentType": 5126,
      "count": 15480,
      "max": [
        0.9997771978378296,
        0.9990402460098267,
        0.9999971389770508,
        1.0
      ],
      "min": [
        -0.9999878406524658,
        -0.9524805545806885,
        -0.9996507167816162,
        -1.0
      ],
      "type": "VEC4"
    },
    {
      "bufferView": 1,
      "componentType": 5126,
      "count": 15480,
      "max": [
        0.9199974536895752,
        0.9033350348472595
      ],
      "min": [
        0.043909043073654175,
        -0.003882077056914568
      ],
      "type": "VEC2"
    },
    {
      "bufferView": 0,
      "componentType": 5125,
      "count": 90624,
      "type": "SCALAR"
    },
    {
      "bufferView": 2,
      "byteOffset": 371520,
      "componentType": 5126,
      "count": 10518,
      "max": [
        3.8486692905426025,
        -1.6357011795043945,
        2.0067391395568848
      ],
      "min": [
        -1.5408642292022705,
        -3.130629301071167,
        -0.5151267647743225
      ],
      "type": "VEC3"
    },
    {
      "bufferView": 2,
      "byteOffset": 497736,
      "componentType": 5126,
      "count": 10518,
      "max": [
        0.9999771118164063,
        0.9999950528144836,
        0.9998217225074768
      ],
      "min": [
        -0.9994261264801025,
        -0.9999675750732422,
        -0.9999479055404663
      ],
      "type": "VEC3"
    },
    {
      "bufferView": 3,
      "byteOffset": 247680,
      "componentType": 5126,
      "count": 10518,
      "max": [
        0.9999498128890991,
        0.9990460872650146,
        0.9987227320671082,
        -1.0
      ],
      "min": [
        -0.9999754428863525,
        -0.9999049305915833,
        -0.9999730587005615,
        -1.0
      ],
      "type": "VEC4"
    },
    {
      "bufferView": 3,
      "byteOffset": 415968,
      "componentType": 5126,
      "count": 10518,
      "max": [
        1.0,
        1.0,
        1.0,
        1.0
      ],
      "min": [
        1.0,
        1.0,
        1.0,
        1.0
      ],
      "type": "VEC4"
    },
    {
      "bufferView": 1,
      "byteOffset": 123840,
      "componentType": 5126,
      "count": 10518,
      "max": [
        0.9966804385185242,
        0.9869022369384766
      ],
      "min": [
        0.12098586559295654,
        0.003266453742980957
      ],
      "type": "VEC2"
    },
    {
      "bufferView": 0,
      "byteOffset": 362496,
      "componentType": 5125,
      "count": 59640,
      "type": "SCALAR"
    },
    {
      "bufferView": 2,
      "byteOffset": 623952,
      "componentType": 5126,
      "count": 15849,
      "max": [
        1.9593310356140137,
        -1.8160688877105713,
        0.6254963278770447
      ],
      "min": [
        1.5258543491363525,
        -2.707780122756958,
        -0.3563859760761261
      ],
      "type": "VEC3"
    },
    {
      "bufferView": 2,
      "byteOffset": 814140,
      "componentType": 5126,
      "count": 15849,
      "max": [
        0.9999741315841675,
        0.9999513626098633,
        0.9996698498725891
      ],
      "min": [
        -0.9999921321868896,
        -0.9984840750694275,
        -0.9996489882469177
      ],
      "type": "VEC3"
    },
    {
      "bufferView": 3,
      "byteOffset": 584256,
      "componentType": 5126,
      "count": 15849,
      "max": [
        0.9999918937683105,
        0.9999778270721436,
        0.9999977350234985,
        1.0
      ],
      "min": [
        -0.9998293519020081,
        -0.9988908767700195,
        -0.999992311000824,
        -1.0
      ],
      "type": "VEC4"
    },
    {
      "bufferView": 3,
      "byteOffset": 837840,
      "componentType": 5126,
      "count": 15849,
      "max": [
        1.0,
        1.0,
        1.0,
        1.0
      ],
      "min": [
        1.0,
        1.0,
        1.0,
        1.0
      ],
      "type": "VEC4"
    },
    {
      "bufferView": 1,
      "byteOffset": 207984,
      "componentType": 5126,
      "count": 15849,
      "max": [
        0.9956544637680054,
        0.9922671318054199
      ],
      "min": [
        0.003992050886154175,
        0.003679998219013214
      ],
      "type": "VEC2"
    },
    {
      "bufferView": 0,
      "byteOffset": 601056,
      "componentType": 5125,
      "count": 90432,
      "type": "SCALAR"
    },
    {
      "bufferView": 2,
      "byteOffset": 1004328,
      "componentType": 5126,
      "count": 797,
      "max": [
        1.9397835731506348,
        -2.528620958328247,
        0.5659030675888062
      ],
      "min": [
        1.7493938207626343,
        -2.7141871452331543,
        -0.14699101448059082
      ],
      "type": "VEC3"
    },
    {
      "bufferView": 2,
      "byteOffset": 1013892,
      "componentType": 5126,
      "count": 797,
      "max": [
        0.997040331363678,
        0.9999924302101135,
        0.9975661635398865
      ],
      "min": [
        -0.9999368190765381,
        -0.8408702611923218,
        -0.9937698841094971
      ],
      "type": "VEC3"
    },
    {
      "bufferView": 3,
      "byteOffset": 1091424,
      "componentType": 5126,
      "count": 797,
      "max": [
        0.9988011121749878,
        0.9997785687446594,
        0.9789857268333435,
        1.0
      ],
      "min": [
        -0.10265769809484482,
        -0.9983593225479126,
        -0.9789817333221436,
        1.0
      ],
      "type": "VEC4"
    },
    {
      "bufferView": 3,
      "byteOffset": 1104176,
      "componentType": 5126,
      "count": 797,
      "max": [
        1.0,
        1.0,
        1.0,
        1.0
      ],
      "min": [
        1.0,
        1.0,
        1.0,
        1.0
      ],
      "type": "VEC4"
    },
    {
      "bufferView": 1,
      "byteOffset": 334776,
      "componentType": 5126,
      "count": 797,
      "max": [
        0.976153552532196,
        0.7799568176269531
      ],
      "min": [
        0.8339377641677856,
        0.315878689289093
      ],
      "type": "VEC2"
    },
    {
      "bufferView": 0,
      "byteOffset": 962784,
      "componentType": 5125,
      "count": 4608,
      "type": "SCALAR"
    },
    {
      "bufferView": 2,
      "byteOffset": 1023456,
      "componentType": 5126,
      "count": 65532,
      "max": [
        4.760426044464111,
        0.2064335197210312,
        1.0418198108673096
      ],
      "min": [
        -0.6479056477546692,
        -0.19054384529590607,
        -1.2894035577774048
      ],
      "type": "VEC3"
    },
    {
      "bufferView": 2,
      "byteOffset": 1809840,
      "componentType": 5126,
      "count": 65532,
      "max": [
        1.0,
        1.0,
        1.0
      ],
      "min": [
        -1.0,
        -1.0,
        -1.0
      ],
      "type": "VEC3"
    },
    {
      "bufferView": 3,
      "byteOffset": 1116928,
      "componentType": 5126,
      "count": 65532,
      "max": [
        1.0,
        1.0,
        1.0,
        1.0
      ],
      "min": [
        0.0,
        0.0,
        0.0,
        1.0
      ],
      "type": "VEC4"
    },
    {
      "bufferView": 1,
      "byteOffset": 341152,
      "componentType": 5126,
      "count": 65532,
      "max": [
        0.9928215742111206,
        0.99654221534729
      ],
      "min": [
        0.0031599507201462984,
        0.0030814586207270622
      ],
      "type": "VEC2"
    },
    {
      "bufferView": 0,
      "byteOffset": 981216,
      "componentType": 5125,
      "count": 370827,
      "type": "SCALAR"
    },
    {
      "bufferView": 2,
      "byteOffset": 2596224,
      "componentType": 5126,
      "count": 7156,
      "max": [
        4.760369300842285,
        0.20574894547462463,
        1.0418137311935425
      ],
      "min": [
        -0.6477493643760681,
        -0.20643357932567596,
        -1.258471131324768
      ],
      "type": "VEC3"
    },
    {
      "bufferView": 2,
      "byteOffset": 2682096,
      "componentType": 5126,
      "count": 7156,
      "max": [
        1.0,
        0.9999999403953552,
        1.0
      ],
      "min": [
        -0.9999999403953552,
        -1.0,
        -1.0
      ],
      "type": "VEC3"
    },
    {
      "bufferView": 3,
      "byteOffset": 2165440,
      "componentType": 5126,
      "count": 7156,
      "max": [
        1.0,
        1.0,
        1.0,
        1.0
      ],
      "min": [
        0.0,
        0.0,
        0.0,
        1.0
      ],
      "type": "VEC4"
    },
    {
      "bufferView": 1,
      "byteOffset": 865408,
      "componentType": 5126,
      "count": 7156,
      "max": [
        0.9915411472320557,
        0.9962828159332275
      ],
      "min": [
        0.003881229553371668,
        0.003243757411837578
      ],
      "type": "VEC2"
    },
    {
      "bufferView": 0,
      "byteOffset": 2464524,
      "componentType": 5125,
      "count": 24264,
      "type": "SCALAR"
    },
    {
      "bufferView": 2,
      "byteOffset": 2767968,
      "componentType": 5126,
      "count": 2214,
      "max": [
        4.547724723815918,
        0.1734355241060257,
        0.9857397675514221
      ],
      "min": [
        -0.5737789869308472,
        -0.1734354943037033,
        0.527186393737793
      ],
      "type": "VEC3"
    },
    {
      "bufferView": 2,
      "byteOffset": 2794536,
      "componentType": 5126,
      "count": 2214,
      "max": [
        0.9912453889846802,
        0.9999998211860657,
        1.0
      ],
      "min": [
        -0.9894125461578369,
        -0.9999998211860657,
        -1.0
      ],
      "type": "VEC3"
    },
    {
      "bufferView": 3,
      "byteOffset": 2279936,
      "componentType": 5126,
      "count": 2214,
      "max": [
        1.0,
        1.0,
        1.0,
        1.0
      ],
      "min": [
        1.0,
        1.0,
        1.0,
        1.0
      ],
      "type": "VEC4"
    },
    {
      "bufferView": 1,
      "byteOffset": 922656,
      "componentType": 5126,
      "count": 2214,
      "max": [
        0.9911933541297913,
        0.9119352698326111
      ],
      "min": [
        0.003963470458984375,
        0.0037121190689504147
      ],
      "type": "VEC2"
    },
    {
      "bufferView": 0,
      "byteOffset": 2561580,
      "componentType": 5125,
      "count": 12276,
      "type": "SCALAR"
    },
    {
      "bufferView": 2,
      "byteOffset": 2821104,
      "componentType": 5126,
      "count": 128,
      "max": [
        1.0,
        0.8590736389160156,
        0.2828860878944397
      ],
      "min": [
        -1.0,
        -0.8474546670913696,
        -1.2515226602554321
      ],
      "type": "VEC3"
    },
    {
      "bufferView": 2,
      "byteOffset": 2822640,
      "componentType": 5126,
      "count": 128,
      "max": [
        0.9999996423721313,
        0.9972208142280579,
        1.0
      ],
      "min": [
        -0.9999999403953552,
        -0.9996849894523621,
        -1.0
      ],
      "type": "VEC3"
    },
    {
      "bufferView": 0,
      "byteOffset": 2610684,
      "componentType": 5125,
      "count": 372,
      "type": "SCALAR"
    }
  ],
  "asset": {
    "extras": {
      "author": "Sololopenko (https://sketchfab.com/Sololopenko)",
      "license": "CC-BY-4.0 (http://creativecommons.org/licenses/by/4.0/)",
      "source": "https://sketchfab.com/3d-models/hand-with-lasergun-2de2c5095b6645df931fb78cde15771c",
      "title": "Hand with lasergun"
    },
    "generator": "Sketchfab-12.67.0",
    "version": "2.0"
  },
  "bufferViews": [
    {
      "buffer": 0,
      "byteLength": 2612172,
      "name": "floatBufferViews",
      "target": 34963
    },
    {
      "buffer": 0,
      "byteLength": 940368,
      "byteOffset": 2612172,
      "byteStride": 8,
      "name": "floatBufferViews",
      "target": 34962
    },
    {
      "buffer": 0,
      "byteLength": 2824176,
      "byteOffset": 3552540,
      "byteStride": 12,
      "name": "floatBufferViews",
      "target": 34962
    },
    {
      "buffer": 0,
      "byteLength": 2315360,
      "byteOffset": 6376716,
      "byteStride": 16,
      "name": "floatBufferViews",
      "target": 34962
    }
  ],
  "buffers": [
    {
      "byteLength": 8692076,
      "uri": "scene.bin"
    }
  ],
  "extensionsUsed": [
    "KHR_materials_transmission"
  ],
  "images": [
    {
      "uri": "textures/cloth_baseColor.png"
    },
    {
      "uri": "textures/cloth_metallicRoughness.png"
    },
    {
      "uri": "textures/cloth_normal.png"
    },
    {
      "uri": "textures/skin_baseColor.png"
    },
    {
      "uri": "textures/skin_metallicRoughness.png"
    },
    {
      "uri": "textures/skin_normal.png"
    },
    {
      "uri": "textures/bracelet_baseColor.png"
    },
    {
      "uri": "textures/bracelet_metallicRoughness.png"
    },
    {
      "uri": "textures/bracelet_emissive.png"
    },
    {
      "uri": "textures/bracelet_normal.png"
    },
    {
      "uri": "textures/material_baseColor.png"
    },
    {
      "uri": "textures/material_metallicRoughness.png"
    },
    {
      "uri": "textures/material_emissive.png"
    },
    {
      "uri": "textures/gun_glass_metallicRoughness.png"
    }
  ],
  "materials": [
    {
      "doubleSided": true,
      "name": "cloth",
      "normalTexture": {
        "index": 2
      },
      "occlusionTexture": {
        "index": 1
      },
      "pbrMetallicRoughness": {
        "baseColorTexture": {
          "index": 0
        },
        "metallicFactor": 0.0,
        "metallicRoughnessTexture": {
          "index": 1
        }
      }
    },
    {
      "doubleSided": true,
      "name": "skin",
      "normalTexture": {
        "index": 5
      },
      "occlusionTexture": {
        "index": 4
      },
      "pbrMetallicRoughness": {
        "baseColorTexture": {
          "index": 3
        },
        "metallicFactor": 0.0,
        "metallicRoughnessTexture": {
          "index": 4
        }
      }
    },
    {
      "doubleSided": true,
      "emissiveFactor": [
        1.0,
        1.0,
        1.0
      ],
      "emissiveTexture": {
        "index": 8
      },
      "name": "bracelet",
      "normalTexture": {
        "index": 9
      },
      "occlusionTexture": {
        "index": 7
      },
      "pbrMetallicRoughness": {
        "baseColorTexture": {
          "index": 6
        },
        "metallicRoughnessTexture": {
          "index": 7
        }
      }
    },
    {
      "alphaMode": "BLEND",
      "doubleSided": true,
      "extensions": {
        "KHR_materials_transmission": {
          "transmissionFactor": 0.504
        }
      },
      "name": "bracelet_glass",
      "normalTexture": {
        "index": 9
      },
      "occlusionTexture": {
        "index": 7
      },
      "pbrMetallicRoughness": {
        "baseColorFactor": [
          1.0,
          1.0,
          1.0,
          0.496
        ],
        "baseColorTexture": {
          "index": 6
        },
        "metallicRoughnessTexture": {
          "index": 7
        }
      }
    },
    {
      "doubleSided": true,
      "emissiveFactor": [
        1.0,
        1.0,
        1.0
      ],
      "emissiveTexture": {
        "index": 12
      },
      "name": "material",
      "occlusionTexture": {
        "index": 11
      },
      "pbrMetallicRoughness": {
        "baseColorTexture": {
          "index": 10
        },
        "metallicRoughnessTexture": {
          "index": 11
        }
      }
    },
    {
      "alphaMode": "BLEND",
      "doubleSided": true,
      "extensions": {
        "KHR_materials_transmission": {
          "transmissionFactor": 0.504
        }
      },
      "name": "gun_glass",
      "occlusionTexture": {
        "index": 13
      },
      "pbrMetallicRoughness": {
        "baseColorFactor": [
          1.0,
          1.0,
          1.0,
          0.496
        ],
        "baseColorTexture": {
          "index": 10
        },
        "metallicRoughnessTexture": {
          "index": 13
        }
      }
    },
    {
      "doubleSided": true,
      "name": "Material.001",
      "pbrMetallicRoughness": {
        "baseColorFactor": [
          0.26651984652910465,
          0.26651984652910465,
          0.26651984652910465,
          1.0
        ],
        "metallicFactor": 0.6724466463414634,
        "roughnessFactor": 0.3519435975609756
      }
    }
  ],
  "meshes": [
    {
      "name": "Cylinder_cloth_0",
      "primitives": [
        {
          "attributes": {
            "NORMAL": 1,
            "POSITION": 0,
            "TANGENT": 2,
            "TEXCOORD_0": 3
          },
          "indices": 4,
          "material": 0,
          "mode": 4
        }
      ]
    },
    {
      "name": "Plane.002_skin_0",
      "primitives": [
        {
          "attributes": {
            "COLOR_0": 8,
            "NORMAL": 6,
            "POSITION": 5,
            "TANGENT": 7,
            "TEXCOORD_0": 9
          },
          "indices": 10,
          "material": 1,
          "mode": 4
        }
      ]
    },
    {
      "name": "Plane.000_bracelet_0",
      "primitives": [
        {
          "attributes": {
            "COLOR_0": 14,
            "NORMAL": 12,
            "POSITION": 11,
            "TANGENT": 13,
            "TEXCOORD_0": 15
          },
          "indices": 16,
          "material": 2,
          "mode": 4
        }
      ]
    },
    {
      "name": "Plane.000_bracelet_glass_0",
      "primitives": [
        {
          "attributes": {
            "COLOR_0": 20,
            "NORMAL": 18,
            "POSITION": 17,
            "TANGENT": 19,
            "TEXCOORD_0": 21
          },
          "indices": 22,
          "material": 3,
          "mode": 4
        }
      ]
    },
    {
      "name": "Cylinder.016_gun_0",
      "primitives": [
        {
          "attributes": {
            "COLOR_0": 25,
            "NORMAL": 24,
            "POSITION": 23,
            "TEXCOORD_0": 26
          },
          "indices": 27,
          "material": 4,
          "mode": 4
        }
      ]
    },
    {
      "name": "Cylinder.016_gun_0",
      "primitives": [
        {
          "attributes": {
            "COLOR_0": 30,
            "NORMAL": 29,
            "POSITION": 28,
            "TEXCOORD_0": 31
          },
          "indices": 32,
          "material": 4,
          "mode": 4
        }
      ]
    },
    {
      "name": "Cylinder.016_gun_glass_0",
      "primitives": [
        {
          "attributes": {
            "COLOR_0": 35,
            "NORMAL": 34,
            "POSITION": 33,
            "TEXCOORD_0": 36
          },
          "indices": 37,
          "material": 5,
          "mode": 4
        }
      ]
    },
    {
      "name": "Cylinder.001_Material.001_0",
      "primitives": [
        {
          "attributes": {
            "NORMAL": 39,
            "POSITION": 38
          },
          "indices": 40,
          "material": 6,
          "mode": 4
        }
      ]
    }
  ],
  "nodes": [
    {
      "children": [
        1
      ],
      "matrix": [
        0.0011840143706649542,
        0.0,
        0.0,
        0.0,
        0.0,
        2.6290400315985933e-19,
        -0.0011840143706649542,
        0.0,
        0.0,
        0.0011840143706649542,
        2.6290400315985933e-19,
        0.0,
        0.0,
        0.0,
        0.0,
        1.0
      ],
      "name": "Sketchfab_model"
    },
    {
      "children": [
        2
      ],
      "matrix": [
        1.0,
        0.0,
        0.0,
        0.0,
        0.0,
        0.0,
        1.0,
        0.0,
        0.0,
        -1.0,
        0.0,
        0.0,
        0.0,
        0.0,
        0.0,
        1.0
      ],
      "name": "a6434648709d4b6aa99e0cd343ce9bd6.fbx"
    },
    {
      "children": [
        3,
        5,
        7,
        10,
        14
      ],
      "name": "RootNode"
    },
    {
      "children": [
        4
      ],
      "matrix": [
        99.75316980965074,
        0.0,
        -7.021651304937815,
        0.0,
        -7.021651304937808,
        -4.3711386728180365e-06,
        -99.75316980965066,
        0.0,
        -3.069261622634656e-07,
        99.99999999999991,
        -4.3603500365918535e-06,
        0.0,
        -316.2121887207031,
        149.5911865234375,
        1.3949519395828247,
        1.0
      ],
      "name": "Cylinder"
    },
    {
      "mesh": 0,
      "name": "Cylinder_cloth_0"
    },
    {
      "children": [
        6
      ],
      "matrix": [
        100.0,
        0.0,
        0.0,
        0.0,
        -0.0,
        -1.629206793918314e-05,
        -99.99999999999868,
        0.0,
        0.0,
        99.99999999999868,
        -1.629206793918314e-05,
        0.0,
        -242.31231689453125,
        -56.34101104736328,
        -204.037353515625,
        1.0
      ],
      "name": "Plane.002"
    },
    {
      "mesh": 1,
      "name": "Plane.002_skin_0"
    },
    {
      "children": [
        8,
        9
      ],
      "matrix": [
        100.0,
        0.0,
        0.0,
        0.0,
        -0.0,
        -1.629206793918314e-05,
        -99.99999999999868,
        0.0,
        0.0,
        99.99999999999868,
        -1.629206793918314e-05,
        0.0,
        -242.3123321533203,
        -56.34100341796875,
        -204.0373992919922,
        1.0
      ],
      "name": "Plane.000"
    },
    {
      "mesh": 2,
      "name": "Plane.000_bracelet_0"
    },
    {
      "mesh": 3,
      "name": "Plane.000_bracelet_glass_0"
    },
    {
      "children": [
        11,
        12,
        13
      ],
      "matrix": [
        100.0,
        0.0,
        0.0,
        0.0,
        0.0,
        -1.629206793918314e-05,
        -99.99999999999868,
        0.0,
        0.0,
        99.99999999999868,
        -1.629206793918314e-05,
        0.0,
        27.568540573120117,
        1.0084514617919922,
        0.006165968719869852,
        1.0
      ],
      "name": "Cylinder.016"
    },
    {
      "mesh": 4,
      "name": "Cylinder.016_gun_0"
    },
    {
      "mesh": 5,
      "name": "Cylinder.016_gun_0"
    },
    {
      "mesh": 6,
      "name": "Cylinder.016_gun_glass_0"
    },
    {
      "children": [
        15
      ],
      "matrix": [
        98.52048600680105,
        23.693621795750538,
        -1.9158438524664843,
        0.0,
        -3.4138925182171573,
        7.245335508011044,
        -85.95173899355201,
        0.0,
        -5.023867242526564,
        21.04935840125291,
        1.973905456990856,
        0.0,
        -314.9675598144531,
        187.133544921875,
        31.41544532775879,
        1.0
      ],
      "name": "Cylinder.001"
    },
    {
      "mesh": 7,
      "name": "Cylinder.001_Material.001_0"
    }
  ],
  "samplers": [
    {
      "magFilter": 9729,
      "minFilter": 9987,
      "wrapS": 10497,
      "wrapT": 10497
    }
  ],
  "scene": 0,
  "scenes": [
    {
      "name": "Sketchfab_Scene",
      "nodes": [
        0
      ]
    }
  ],
  "textures": [
    {
      "sampler": 0,
      "source": 0
    },
    {
      "sampler": 0,
      "source": 1
    },
    {
      "sampler": 0,
      "source": 2
    },
    {
      "sampler": 0,
      "source": 3
    },
    {
      "sampler": 0,
      "source": 4
    },
    {
      "sampler": 0,
      "source": 5
    },
    {
      "sampler": 0,
      "source": 6
    },
    {
      "sampler": 0,
      "source": 7
    },
    {
      "sampler": 0,
      "source": 8
    },
    {
      "sampler": 0,
      "source": 9
    },
    {
      "sampler": 0,
      "source": 10
    },
    {
      "sampler": 0,
      "source": 11
    },
    {
      "sampler": 0,
      "source": 12
    },
    {
      "sampler": 0,
      "source": 13
    }
  ]
}
